<svg id="visual" viewBox="0 0 960 540" width="960" height="540" xmlns="http://www.w3.org/2000/svg" xmlns:xlink="http://www.w3.org/1999/xlink" version="1.1"><rect x="0" y="0" width="960" height="540" fill="#000910"></rect><defs><linearGradient id="grad1_0" x1="43.8%" y1="0%" x2="100%" y2="100%"><stop offset="14.444444444444446%" stop-color="#ff0066" stop-opacity="1"></stop><stop offset="85.55555555555554%" stop-color="#ff0066" stop-opacity="1"></stop></linearGradient></defs><defs><linearGradient id="grad1_1" x1="43.8%" y1="0%" x2="100%" y2="100%"><stop offset="14.444444444444446%" stop-color="#ff0066" stop-opacity="1"></stop><stop offset="85.55555555555554%" stop-color="#c11d80" stop-opacity="1"></stop></linearGradient></defs><defs><linearGradient id="grad1_2" x1="43.8%" y1="0%" x2="100%" y2="100%"><stop offset="14.444444444444446%" stop-color="#78317f" stop-opacity="1"></stop><stop offset="85.55555555555554%" stop-color="#c11d80" stop-opacity="1"></stop></linearGradient></defs><defs><linearGradient id="grad1_3" x1="43.8%" y1="0%" x2="100%" y2="100%"><stop offset="14.444444444444446%" stop-color="#78317f" stop-opacity="1"></stop><stop offset="85.55555555555554%" stop-color="#362f66" stop-opacity="1"></stop></linearGradient></defs><defs><linearGradient id="grad1_4" x1="43.8%" y1="0%" x2="100%" y2="100%"><stop offset="14.444444444444446%" stop-color="#0a213c" stop-opacity="1"></stop><stop offset="85.55555555555554%" stop-color="#362f66" stop-opacity="1"></stop></linearGradient></defs><defs><linearGradient id="grad1_5" x1="43.8%" y1="0%" x2="100%" y2="100%"><stop offset="14.444444444444446%" stop-color="#0a213c" stop-opacity="1"></stop><stop offset="85.55555555555554%" stop-color="#000910" stop-opacity="1"></stop></linearGradient></defs><defs><linearGradient id="grad2_0" x1="0%" y1="0%" x2="56.3%" y2="100%"><stop offset="14.444444444444446%" stop-color="#ff0066" stop-opacity="1"></stop><stop offset="85.55555555555554%" stop-color="#ff0066" stop-opacity="1"></stop></linearGradient></defs><defs><linearGradient id="grad2_1" x1="0%" y1="0%" x2="56.3%" y2="100%"><stop offset="14.444444444444446%" stop-color="#c11d80" stop-opacity="1"></stop><stop offset="85.55555555555554%" stop-color="#ff0066" stop-opacity="1"></stop></linearGradient></defs><defs><linearGradient id="grad2_2" x1="0%" y1="0%" x2="56.3%" y2="100%"><stop offset="14.444444444444446%" stop-color="#c11d80" stop-opacity="1"></stop><stop offset="85.55555555555554%" stop-color="#78317f" stop-opacity="1"></stop></linearGradient></defs><defs><linearGradient id="grad2_3" x1="0%" y1="0%" x2="56.3%" y2="100%"><stop offset="14.444444444444446%" stop-color="#362f66" stop-opacity="1"></stop><stop offset="85.55555555555554%" stop-color="#78317f" stop-opacity="1"></stop></linearGradient></defs><defs><linearGradient id="grad2_4" x1="0%" y1="0%" x2="56.3%" y2="100%"><stop offset="14.444444444444446%" stop-color="#362f66" stop-opacity="1"></stop><stop offset="85.55555555555554%" stop-color="#0a213c" stop-opacity="1"></stop></linearGradient></defs><defs><linearGradient id="grad2_5" x1="0%" y1="0%" x2="56.3%" y2="100%"><stop offset="14.444444444444446%" stop-color="#000910" stop-opacity="1"></stop><stop offset="85.55555555555554%" stop-color="#0a213c" stop-opacity="1"></stop></linearGradient></defs><g transform="translate(960, 0)"><path d="M0 243C-26.7 209.6 -53.3 176.3 -92.5 160.2C-131.7 144.1 -183.3 145.3 -210.4 121.5C-237.6 97.7 -240.3 48.8 -243 0L0 0Z" fill="#061726"></path><path d="M0 202.5C-22.2 174.7 -44.5 146.9 -77.1 133.5C-109.7 120.1 -152.7 121.1 -175.4 101.3C-198 81.4 -200.3 40.7 -202.5 0L0 0Z" fill="#1b2952"></path><path d="M0 162C-17.8 139.8 -35.6 117.5 -61.7 106.8C-87.8 96.1 -122.2 96.9 -140.3 81C-158.4 65.1 -160.2 32.6 -162 0L0 0Z" fill="#553275"></path><path d="M0 121.5C-13.3 104.8 -26.7 88.1 -46.2 80.1C-65.8 72.1 -91.6 72.7 -105.2 60.8C-118.8 48.8 -120.2 24.4 -121.5 0L0 0Z" fill="#9d2a83"></path><path d="M0 81C-8.9 69.9 -17.8 58.8 -30.8 53.4C-43.9 48 -61.1 48.4 -70.1 40.5C-79.2 32.6 -80.1 16.3 -81 0L0 0Z" fill="#e20876"></path><path d="M0 40.5C-4.4 34.9 -8.9 29.4 -15.4 26.7C-21.9 24 -30.5 24.2 -35.1 20.3C-39.6 16.3 -40.1 8.1 -40.5 0L0 0Z" fill="#ff0066"></path></g><g transform="translate(0, 540)"><path d="M0 -243C38.4 -230 76.8 -216.9 114.5 -198.3C152.2 -179.7 189.1 -155.5 210.4 -121.5C231.7 -87.5 237.4 -43.8 243 0L0 0Z" fill="#061726"></path><path d="M0 -202.5C32 -191.6 64 -180.8 95.4 -165.3C126.8 -149.7 157.6 -129.6 175.4 -101.3C193.1 -72.9 197.8 -36.5 202.5 0L0 0Z" fill="#1b2952"></path><path d="M0 -162C25.6 -153.3 51.2 -144.6 76.3 -132.2C101.5 -119.8 126.1 -103.7 140.3 -81C154.5 -58.3 158.2 -29.2 162 0L0 0Z" fill="#553275"></path><path d="M0 -121.5C19.2 -115 38.4 -108.5 57.2 -99.2C76.1 -89.8 94.6 -77.7 105.2 -60.8C115.9 -43.8 118.7 -21.9 121.5 0L0 0Z" fill="#9d2a83"></path><path d="M0 -81C12.8 -76.7 25.6 -72.3 38.2 -66.1C50.7 -59.9 63 -51.8 70.1 -40.5C77.2 -29.2 79.1 -14.6 81 0L0 0Z" fill="#e20876"></path><path d="M0 -40.5C6.4 -38.3 12.8 -36.2 19.1 -33.1C25.4 -29.9 31.5 -25.9 35.1 -20.3C38.6 -14.6 39.6 -7.3 40.5 0L0 0Z" fill="#ff0066"></path></g></svg>