<svg id="visual" viewBox="0 0 960 540" width="960" height="540" xmlns="http://www.w3.org/2000/svg" xmlns:xlink="http://www.w3.org/1999/xlink" version="1.1"><g stroke-width="3" stroke-linejoin="bevel"><path d="M482 248L449 234L436 270Z" fill="#9c2a83" stroke="#000000"></path><path d="M436 270L458 329L482 248Z" fill="#000910" stroke="#000000"></path><path d="M449 234L410 269L436 270Z" fill="#000910" stroke="#000000"></path><path d="M436 270L410 269L430 291Z" fill="#e20876" stroke="#000000"></path><path d="M413 218L402 264L410 269Z" fill="#c01e80" stroke="#000000"></path><path d="M410 269L388 278L430 291Z" fill="#0a213c" stroke="#000000"></path><path d="M455 185L428 206L449 234Z" fill="#78317f" stroke="#000000"></path><path d="M449 234L413 218L410 269Z" fill="#362f66" stroke="#000000"></path><path d="M428 206L413 218L449 234Z" fill="#c01e80" stroke="#000000"></path><path d="M523 323L528 252L482 248Z" fill="#78317f" stroke="#000000"></path><path d="M463 183L455 185L449 234Z" fill="#78317f" stroke="#000000"></path><path d="M371 350L458 329L430 291Z" fill="#1b2952" stroke="#000000"></path><path d="M430 291L458 329L436 270Z" fill="#ff0066" stroke="#000000"></path><path d="M463 183L449 234L482 248Z" fill="#553275" stroke="#000000"></path><path d="M387 241L388 278L402 264Z" fill="#ff0066" stroke="#000000"></path><path d="M402 264L388 278L410 269Z" fill="#78317f" stroke="#000000"></path><path d="M413 218L387 241L402 264Z" fill="#000910" stroke="#000000"></path><path d="M511 170L463 183L482 248Z" fill="#ff0066" stroke="#000000"></path><path d="M433 178L423 183L428 206Z" fill="#362f66" stroke="#000000"></path><path d="M428 206L423 183L413 218Z" fill="#e20876" stroke="#000000"></path><path d="M413 218L326 226L387 241Z" fill="#362f66" stroke="#000000"></path><path d="M433 178L428 206L455 185Z" fill="#000910" stroke="#000000"></path><path d="M436 133L433 178L455 185Z" fill="#0a213c" stroke="#000000"></path><path d="M523 323L547 264L528 252Z" fill="#ff0066" stroke="#000000"></path><path d="M547 196L511 170L482 248Z" fill="#e20876" stroke="#000000"></path><path d="M458 329L523 323L482 248Z" fill="#0a213c" stroke="#000000"></path><path d="M547 196L482 248L528 252Z" fill="#061726" stroke="#000000"></path><path d="M463 183L436 133L455 185Z" fill="#ff0066" stroke="#000000"></path><path d="M547 264L547 196L528 252Z" fill="#061726" stroke="#000000"></path><path d="M458 329L518 353L523 323Z" fill="#9c2a83" stroke="#000000"></path><path d="M523 323L549 325L547 264Z" fill="#e20876" stroke="#000000"></path><path d="M543 359L549 325L523 323Z" fill="#553275" stroke="#000000"></path><path d="M547 264L589 217L547 196Z" fill="#553275" stroke="#000000"></path><path d="M549 325L577 264L547 264Z" fill="#0a213c" stroke="#000000"></path><path d="M589 217L560 186L547 196Z" fill="#000910" stroke="#000000"></path><path d="M547 196L560 186L511 170Z" fill="#78317f" stroke="#000000"></path><path d="M458 329L524 364L518 353Z" fill="#0a213c" stroke="#000000"></path><path d="M518 353L543 359L523 323Z" fill="#0a213c" stroke="#000000"></path><path d="M511 170L436 133L463 183Z" fill="#553275" stroke="#000000"></path><path d="M433 178L436 133L423 183Z" fill="#e20876" stroke="#000000"></path><path d="M326 226L323 270L387 241Z" fill="#362f66" stroke="#000000"></path><path d="M476 80L436 133L511 170Z" fill="#0a213c" stroke="#000000"></path><path d="M312 299L371 350L388 278Z" fill="#78317f" stroke="#000000"></path><path d="M388 278L371 350L430 291Z" fill="#553275" stroke="#000000"></path><path d="M458 329L422 438L524 364Z" fill="#9c2a83" stroke="#000000"></path><path d="M524 364L543 359L518 353Z" fill="#000910" stroke="#000000"></path><path d="M549 325L572 332L577 264Z" fill="#ff0066" stroke="#000000"></path><path d="M543 359L572 332L549 325Z" fill="#9c2a83" stroke="#000000"></path><path d="M326 226L413 218L423 183Z" fill="#e20876" stroke="#000000"></path><path d="M387 241L323 270L388 278Z" fill="#9c2a83" stroke="#000000"></path><path d="M387 132L326 226L423 183Z" fill="#1b2952" stroke="#000000"></path><path d="M613 269L594 244L577 264Z" fill="#000910" stroke="#000000"></path><path d="M577 264L589 217L547 264Z" fill="#ff0066" stroke="#000000"></path><path d="M594 244L589 217L577 264Z" fill="#061726" stroke="#000000"></path><path d="M312 299L357 357L371 350Z" fill="#1b2952" stroke="#000000"></path><path d="M371 350L397 393L458 329Z" fill="#362f66" stroke="#000000"></path><path d="M436 133L387 132L423 183Z" fill="#9c2a83" stroke="#000000"></path><path d="M371 393L397 393L371 350Z" fill="#78317f" stroke="#000000"></path><path d="M589 217L584 173L560 186Z" fill="#e20876" stroke="#000000"></path><path d="M560 186L548 107L511 170Z" fill="#9c2a83" stroke="#000000"></path><path d="M621 151L584 173L589 217Z" fill="#000910" stroke="#000000"></path><path d="M294 303L312 299L323 270Z" fill="#78317f" stroke="#000000"></path><path d="M323 270L312 299L388 278Z" fill="#553275" stroke="#000000"></path><path d="M543 359L571 360L572 332Z" fill="#000910" stroke="#000000"></path><path d="M572 332L613 269L577 264Z" fill="#553275" stroke="#000000"></path><path d="M547 398L571 360L543 359Z" fill="#ff0066" stroke="#000000"></path><path d="M547 398L543 359L524 364Z" fill="#553275" stroke="#000000"></path><path d="M626 339L613 269L572 332Z" fill="#553275" stroke="#000000"></path><path d="M594 244L674 183L589 217Z" fill="#9c2a83" stroke="#000000"></path><path d="M357 357L371 393L371 350Z" fill="#061726" stroke="#000000"></path><path d="M340 401L371 393L357 357Z" fill="#c01e80" stroke="#000000"></path><path d="M422 438L458 329L397 393Z" fill="#1b2952" stroke="#000000"></path><path d="M520 436L547 398L524 364Z" fill="#362f66" stroke="#000000"></path><path d="M436 133L373 112L387 132Z" fill="#061726" stroke="#000000"></path><path d="M387 132L294 175L326 226Z" fill="#000910" stroke="#000000"></path><path d="M382 42L373 112L436 133Z" fill="#1b2952" stroke="#000000"></path><path d="M256 228L294 303L323 270Z" fill="#1b2952" stroke="#000000"></path><path d="M312 299L294 303L357 357Z" fill="#9c2a83" stroke="#000000"></path><path d="M290 209L323 270L326 226Z" fill="#9c2a83" stroke="#000000"></path><path d="M373 112L363 116L387 132Z" fill="#9c2a83" stroke="#000000"></path><path d="M294 175L290 209L326 226Z" fill="#e20876" stroke="#000000"></path><path d="M584 173L548 107L560 186Z" fill="#0a213c" stroke="#000000"></path><path d="M548 107L476 80L511 170Z" fill="#ff0066" stroke="#000000"></path><path d="M344 106L347 112L363 116Z" fill="#0a213c" stroke="#000000"></path><path d="M363 116L294 175L387 132Z" fill="#0a213c" stroke="#000000"></path><path d="M344 106L363 116L373 112Z" fill="#061726" stroke="#000000"></path><path d="M371 393L422 438L397 393Z" fill="#1b2952" stroke="#000000"></path><path d="M347 112L294 175L363 116Z" fill="#78317f" stroke="#000000"></path><path d="M271 324L340 401L357 357Z" fill="#c01e80" stroke="#000000"></path><path d="M371 393L350 472L422 438Z" fill="#362f66" stroke="#000000"></path><path d="M613 392L626 339L571 360Z" fill="#000910" stroke="#000000"></path><path d="M571 360L626 339L572 332Z" fill="#78317f" stroke="#000000"></path><path d="M422 438L520 436L524 364Z" fill="#1b2952" stroke="#000000"></path><path d="M610 404L613 392L571 360Z" fill="#9c2a83" stroke="#000000"></path><path d="M382 42L344 106L373 112Z" fill="#1b2952" stroke="#000000"></path><path d="M347 112L295 146L294 175Z" fill="#e20876" stroke="#000000"></path><path d="M590 28L544 86L548 107Z" fill="#061726" stroke="#000000"></path><path d="M548 107L544 86L476 80Z" fill="#9c2a83" stroke="#000000"></path><path d="M674 183L621 151L589 217Z" fill="#553275" stroke="#000000"></path><path d="M584 173L621 151L548 107Z" fill="#553275" stroke="#000000"></path><path d="M674 183L594 244L613 269Z" fill="#0a213c" stroke="#000000"></path><path d="M344 106L295 146L347 112Z" fill="#e20876" stroke="#000000"></path><path d="M250 197L256 228L290 209Z" fill="#c01e80" stroke="#000000"></path><path d="M256 228L271 324L294 303Z" fill="#e20876" stroke="#000000"></path><path d="M294 303L271 324L357 357Z" fill="#0a213c" stroke="#000000"></path><path d="M256 228L323 270L290 209Z" fill="#1b2952" stroke="#000000"></path><path d="M250 197L290 209L294 175Z" fill="#000910" stroke="#000000"></path><path d="M610 404L571 360L547 398Z" fill="#362f66" stroke="#000000"></path><path d="M568 481L610 404L547 398Z" fill="#1b2952" stroke="#000000"></path><path d="M261 148L250 197L294 175Z" fill="#c01e80" stroke="#000000"></path><path d="M235 340L253 347L271 324Z" fill="#ff0066" stroke="#000000"></path><path d="M643 387L649 369L613 392Z" fill="#362f66" stroke="#000000"></path><path d="M613 392L649 369L626 339Z" fill="#e20876" stroke="#000000"></path><path d="M701 252L674 183L613 269Z" fill="#78317f" stroke="#000000"></path><path d="M439 488L451 480L422 438Z" fill="#0a213c" stroke="#000000"></path><path d="M422 438L451 480L520 436Z" fill="#ff0066" stroke="#000000"></path><path d="M520 436L568 481L547 398Z" fill="#000910" stroke="#000000"></path><path d="M235 340L271 324L256 228Z" fill="#9c2a83" stroke="#000000"></path><path d="M271 324L253 347L340 401Z" fill="#78317f" stroke="#000000"></path><path d="M437 489L439 488L422 438Z" fill="#061726" stroke="#000000"></path><path d="M544 86L494 36L476 80Z" fill="#000910" stroke="#000000"></path><path d="M476 80L382 42L436 133Z" fill="#c01e80" stroke="#000000"></path><path d="M508 0L494 36L530 0Z" fill="#000910" stroke="#000000"></path><path d="M610 404L643 387L613 392Z" fill="#c01e80" stroke="#000000"></path><path d="M263 136L261 148L295 146Z" fill="#ff0066" stroke="#000000"></path><path d="M295 146L261 148L294 175Z" fill="#553275" stroke="#000000"></path><path d="M695 268L613 269L626 339Z" fill="#553275" stroke="#000000"></path><path d="M621 151L590 28L548 107Z" fill="#78317f" stroke="#000000"></path><path d="M431 0L382 42L476 80Z" fill="#78317f" stroke="#000000"></path><path d="M301 66L263 136L295 146Z" fill="#78317f" stroke="#000000"></path><path d="M301 66L295 146L344 106Z" fill="#e20876" stroke="#000000"></path><path d="M223 148L232 204L250 197Z" fill="#c01e80" stroke="#000000"></path><path d="M437 489L422 438L350 472Z" fill="#000910" stroke="#000000"></path><path d="M524 530L568 481L520 436Z" fill="#ff0066" stroke="#000000"></path><path d="M350 472L371 393L340 401Z" fill="#000910" stroke="#000000"></path><path d="M667 378L669 439L695 400Z" fill="#362f66" stroke="#000000"></path><path d="M223 148L250 197L261 148Z" fill="#553275" stroke="#000000"></path><path d="M250 197L232 204L256 228Z" fill="#0a213c" stroke="#000000"></path><path d="M709 322L626 339L649 369Z" fill="#e20876" stroke="#000000"></path><path d="M709 322L695 268L626 339Z" fill="#1b2952" stroke="#000000"></path><path d="M162 297L235 340L256 228Z" fill="#061726" stroke="#000000"></path><path d="M320 465L350 472L340 401Z" fill="#78317f" stroke="#000000"></path><path d="M320 465L340 401L297 455Z" fill="#362f66" stroke="#000000"></path><path d="M684 383L667 378L695 400Z" fill="#e20876" stroke="#000000"></path><path d="M643 387L667 378L649 369Z" fill="#061726" stroke="#000000"></path><path d="M520 436L451 480L524 530Z" fill="#553275" stroke="#000000"></path><path d="M704 258L701 252L695 268Z" fill="#ff0066" stroke="#000000"></path><path d="M695 268L701 252L613 269Z" fill="#362f66" stroke="#000000"></path><path d="M705 220L680 152L674 183Z" fill="#553275" stroke="#000000"></path><path d="M674 183L680 152L621 151Z" fill="#000910" stroke="#000000"></path><path d="M730 289L704 258L695 268Z" fill="#1b2952" stroke="#000000"></path><path d="M701 252L705 220L674 183Z" fill="#000910" stroke="#000000"></path><path d="M382 42L301 66L344 106Z" fill="#e20876" stroke="#000000"></path><path d="M524 530L451 480L481 540Z" fill="#061726" stroke="#000000"></path><path d="M297 455L340 401L281 453Z" fill="#362f66" stroke="#000000"></path><path d="M723 226L705 220L701 252Z" fill="#ff0066" stroke="#000000"></path><path d="M281 453L340 401L253 347Z" fill="#1b2952" stroke="#000000"></path><path d="M667 378L643 387L669 439Z" fill="#1b2952" stroke="#000000"></path><path d="M667 378L709 322L649 369Z" fill="#000910" stroke="#000000"></path><path d="M684 383L709 322L667 378Z" fill="#9c2a83" stroke="#000000"></path><path d="M704 258L723 226L701 252Z" fill="#0a213c" stroke="#000000"></path><path d="M494 36L431 0L476 80Z" fill="#553275" stroke="#000000"></path><path d="M382 42L359 0L301 66Z" fill="#ff0066" stroke="#000000"></path><path d="M227 117L223 148L263 136Z" fill="#553275" stroke="#000000"></path><path d="M263 136L223 148L261 148Z" fill="#ff0066" stroke="#000000"></path><path d="M153 264L162 297L256 228Z" fill="#1b2952" stroke="#000000"></path><path d="M530 0L494 36L544 86Z" fill="#1b2952" stroke="#000000"></path><path d="M494 36L508 0L431 0Z" fill="#e20876" stroke="#000000"></path><path d="M168 430L281 453L253 347Z" fill="#061726" stroke="#000000"></path><path d="M297 455L288 506L320 465Z" fill="#553275" stroke="#000000"></path><path d="M672 27L590 28L621 151Z" fill="#362f66" stroke="#000000"></path><path d="M737 287L723 226L704 258Z" fill="#c01e80" stroke="#000000"></path><path d="M705 220L764 132L680 152Z" fill="#78317f" stroke="#000000"></path><path d="M587 23L530 0L544 86Z" fill="#c01e80" stroke="#000000"></path><path d="M593 21L587 23L590 28Z" fill="#e20876" stroke="#000000"></path><path d="M590 28L587 23L544 86Z" fill="#1b2952" stroke="#000000"></path><path d="M301 66L227 117L263 136Z" fill="#553275" stroke="#000000"></path><path d="M627 0L593 21L590 28Z" fill="#362f66" stroke="#000000"></path><path d="M587 23L562 -26L530 0Z" fill="#e20876" stroke="#000000"></path><path d="M709 322L730 289L695 268Z" fill="#c01e80" stroke="#000000"></path><path d="M737 287L730 289L739 313Z" fill="#e20876" stroke="#000000"></path><path d="M669 439L643 387L610 404Z" fill="#ff0066" stroke="#000000"></path><path d="M684 383L731 387L709 322Z" fill="#061726" stroke="#000000"></path><path d="M431 0L359 0L382 42Z" fill="#1b2952" stroke="#000000"></path><path d="M187 49L197 118L227 117Z" fill="#362f66" stroke="#000000"></path><path d="M568 481L669 439L610 404Z" fill="#1b2952" stroke="#000000"></path><path d="M481 540L451 480L439 488Z" fill="#78317f" stroke="#000000"></path><path d="M568 481L622 540L669 439Z" fill="#061726" stroke="#000000"></path><path d="M481 540L439 488L437 489Z" fill="#061726" stroke="#000000"></path><path d="M481 540L437 489L415 540Z" fill="#061726" stroke="#000000"></path><path d="M437 489L371 540L415 540Z" fill="#061726" stroke="#000000"></path><path d="M739 313L730 289L709 322Z" fill="#061726" stroke="#000000"></path><path d="M730 289L737 287L704 258Z" fill="#362f66" stroke="#000000"></path><path d="M437 489L350 472L371 540Z" fill="#362f66" stroke="#000000"></path><path d="M371 540L350 472L346 540Z" fill="#362f66" stroke="#000000"></path><path d="M749 369L739 313L709 322Z" fill="#000910" stroke="#000000"></path><path d="M164 152L181 175L223 148Z" fill="#000910" stroke="#000000"></path><path d="M223 148L181 175L232 204Z" fill="#c01e80" stroke="#000000"></path><path d="M669 439L702 416L695 400Z" fill="#1b2952" stroke="#000000"></path><path d="M695 400L731 387L684 383Z" fill="#78317f" stroke="#000000"></path><path d="M481 540L537 540L524 530Z" fill="#0a213c" stroke="#000000"></path><path d="M524 530L562 540L568 481Z" fill="#0a213c" stroke="#000000"></path><path d="M710 463L711 417L702 416Z" fill="#000910" stroke="#000000"></path><path d="M288 506L350 472L320 465Z" fill="#78317f" stroke="#000000"></path><path d="M187 49L227 117L301 66Z" fill="#ff0066" stroke="#000000"></path><path d="M227 117L197 118L223 148Z" fill="#c01e80" stroke="#000000"></path><path d="M723 88L707 93L764 132Z" fill="#9c2a83" stroke="#000000"></path><path d="M680 152L707 93L621 151Z" fill="#362f66" stroke="#000000"></path><path d="M707 93L680 152L764 132Z" fill="#1b2952" stroke="#000000"></path><path d="M710 463L702 416L669 439Z" fill="#c01e80" stroke="#000000"></path><path d="M702 416L711 417L695 400Z" fill="#9c2a83" stroke="#000000"></path><path d="M153 264L256 228L232 204Z" fill="#362f66" stroke="#000000"></path><path d="M235 340L168 430L253 347Z" fill="#1b2952" stroke="#000000"></path><path d="M537 540L562 540L524 530Z" fill="#000910" stroke="#000000"></path><path d="M239 527L288 506L281 453Z" fill="#0a213c" stroke="#000000"></path><path d="M281 453L288 506L297 455Z" fill="#e20876" stroke="#000000"></path><path d="M711 417L731 387L695 400Z" fill="#78317f" stroke="#000000"></path><path d="M575 -26L587 23L593 21Z" fill="#1b2952" stroke="#000000"></path><path d="M575 -26L562 -26L587 23Z" fill="#0a213c" stroke="#000000"></path><path d="M530 0L562 -26L508 0Z" fill="#1b2952" stroke="#000000"></path><path d="M508 0L562 -26L431 0Z" fill="#000910" stroke="#000000"></path><path d="M431 0L352 -31L359 0Z" fill="#000910" stroke="#000000"></path><path d="M288 506L346 540L350 472Z" fill="#0a213c" stroke="#000000"></path><path d="M150 251L153 264L232 204Z" fill="#e20876" stroke="#000000"></path><path d="M150 251L232 204L181 175Z" fill="#362f66" stroke="#000000"></path><path d="M627 0L575 -26L593 21Z" fill="#c01e80" stroke="#000000"></path><path d="M562 -26L352 -31L431 0Z" fill="#362f66" stroke="#000000"></path><path d="M359 0L285 0L301 66Z" fill="#061726" stroke="#000000"></path><path d="M199 -41L352 -31L882 -44Z" fill="#061726" stroke="#000000"></path><path d="M632 -1L627 0L644 0Z" fill="#c01e80" stroke="#000000"></path><path d="M129 228L150 251L181 175Z" fill="#553275" stroke="#000000"></path><path d="M346 540L431 565L371 540Z" fill="#ff0066" stroke="#000000"></path><path d="M371 540L431 565L415 540Z" fill="#553275" stroke="#000000"></path><path d="M415 540L431 565L481 540Z" fill="#1b2952" stroke="#000000"></path><path d="M481 540L471 579L537 540Z" fill="#9c2a83" stroke="#000000"></path><path d="M537 540L471 579L562 540Z" fill="#ff0066" stroke="#000000"></path><path d="M781 270L767 263L737 287Z" fill="#e20876" stroke="#000000"></path><path d="M737 287L767 263L723 226Z" fill="#9c2a83" stroke="#000000"></path><path d="M781 270L737 287L739 313Z" fill="#e20876" stroke="#000000"></path><path d="M352 -31L285 0L359 0Z" fill="#061726" stroke="#000000"></path><path d="M798 399L749 369L731 387Z" fill="#362f66" stroke="#000000"></path><path d="M731 387L749 369L709 322Z" fill="#553275" stroke="#000000"></path><path d="M672 27L627 0L590 28Z" fill="#553275" stroke="#000000"></path><path d="M627 0L632 -1L575 -26Z" fill="#1b2952" stroke="#000000"></path><path d="M142 167L164 152L144 118Z" fill="#553275" stroke="#000000"></path><path d="M197 118L164 152L223 148Z" fill="#061726" stroke="#000000"></path><path d="M764 132L705 220L723 226Z" fill="#c01e80" stroke="#000000"></path><path d="M707 93L672 27L621 151Z" fill="#9c2a83" stroke="#000000"></path><path d="M697 17L672 27L707 93Z" fill="#1b2952" stroke="#000000"></path><path d="M352 -31L276 0L285 0Z" fill="#e20876" stroke="#000000"></path><path d="M285 0L276 0L301 66Z" fill="#000910" stroke="#000000"></path><path d="M777 226L772 209L723 226Z" fill="#ff0066" stroke="#000000"></path><path d="M672 27L644 0L627 0Z" fill="#1b2952" stroke="#000000"></path><path d="M632 -1L692 -11L575 -26Z" fill="#0a213c" stroke="#000000"></path><path d="M781 270L777 226L767 263Z" fill="#c01e80" stroke="#000000"></path><path d="M767 263L777 226L723 226Z" fill="#1b2952" stroke="#000000"></path><path d="M284 547L471 579L431 565Z" fill="#362f66" stroke="#000000"></path><path d="M431 565L471 579L481 540Z" fill="#c01e80" stroke="#000000"></path><path d="M796 273L781 270L797 284Z" fill="#9c2a83" stroke="#000000"></path><path d="M649 540L710 463L669 439Z" fill="#9c2a83" stroke="#000000"></path><path d="M800 450L798 399L731 387Z" fill="#061726" stroke="#000000"></path><path d="M678 575L622 540L562 540Z" fill="#0a213c" stroke="#000000"></path><path d="M562 540L622 540L568 481Z" fill="#1b2952" stroke="#000000"></path><path d="M164 152L142 167L181 175Z" fill="#061726" stroke="#000000"></path><path d="M144 118L164 152L197 118Z" fill="#78317f" stroke="#000000"></path><path d="M672 0L664 0L672 27Z" fill="#553275" stroke="#000000"></path><path d="M672 27L664 0L644 0Z" fill="#000910" stroke="#000000"></path><path d="M644 0L692 -11L632 -1Z" fill="#e20876" stroke="#000000"></path><path d="M809 172L764 132L772 209Z" fill="#0a213c" stroke="#000000"></path><path d="M772 209L764 132L723 226Z" fill="#e20876" stroke="#000000"></path><path d="M697 17L672 0L672 27Z" fill="#0a213c" stroke="#000000"></path><path d="M142 167L129 228L181 175Z" fill="#553275" stroke="#000000"></path><path d="M150 251L129 228L153 264Z" fill="#c01e80" stroke="#000000"></path><path d="M107 334L144 368L162 297Z" fill="#9c2a83" stroke="#000000"></path><path d="M144 368L235 340L162 297Z" fill="#362f66" stroke="#000000"></path><path d="M144 368L151 382L235 340Z" fill="#c01e80" stroke="#000000"></path><path d="M151 382L157 398L235 340Z" fill="#e20876" stroke="#000000"></path><path d="M107 334L162 297L153 264Z" fill="#0a213c" stroke="#000000"></path><path d="M151 382L114 377L157 398Z" fill="#9c2a83" stroke="#000000"></path><path d="M199 -41L246 0L276 0Z" fill="#000910" stroke="#000000"></path><path d="M276 0L246 0L301 66Z" fill="#061726" stroke="#000000"></path><path d="M697 17L707 93L723 88Z" fill="#061726" stroke="#000000"></path><path d="M664 0L692 -11L644 0Z" fill="#000910" stroke="#000000"></path><path d="M114 377L168 430L157 398Z" fill="#c01e80" stroke="#000000"></path><path d="M157 398L168 430L235 340Z" fill="#ff0066" stroke="#000000"></path><path d="M255 540L284 547L288 506Z" fill="#061726" stroke="#000000"></path><path d="M288 506L284 547L346 540Z" fill="#0a213c" stroke="#000000"></path><path d="M346 540L284 547L431 565Z" fill="#c01e80" stroke="#000000"></path><path d="M781 270L796 273L777 226Z" fill="#061726" stroke="#000000"></path><path d="M793 80L770 83L764 132Z" fill="#0a213c" stroke="#000000"></path><path d="M797 284L781 270L739 313Z" fill="#78317f" stroke="#000000"></path><path d="M797 284L739 313L749 369Z" fill="#553275" stroke="#000000"></path><path d="M698 0L697 17L814 -1Z" fill="#c01e80" stroke="#000000"></path><path d="M798 399L797 284L749 369Z" fill="#e20876" stroke="#000000"></path><path d="M678 575L649 540L622 540Z" fill="#000910" stroke="#000000"></path><path d="M622 540L649 540L669 439Z" fill="#e20876" stroke="#000000"></path><path d="M246 0L187 49L301 66Z" fill="#1b2952" stroke="#000000"></path><path d="M187 49L144 118L197 118Z" fill="#9c2a83" stroke="#000000"></path><path d="M142 167L123 172L129 228Z" fill="#e20876" stroke="#000000"></path><path d="M117 120L123 172L142 167Z" fill="#553275" stroke="#000000"></path><path d="M201 501L239 527L281 453Z" fill="#9c2a83" stroke="#000000"></path><path d="M239 527L255 540L288 506Z" fill="#061726" stroke="#000000"></path><path d="M770 83L697 17L723 88Z" fill="#362f66" stroke="#000000"></path><path d="M697 17L698 0L672 0Z" fill="#1b2952" stroke="#000000"></path><path d="M672 0L692 -11L664 0Z" fill="#362f66" stroke="#000000"></path><path d="M123 172L108 218L129 228Z" fill="#78317f" stroke="#000000"></path><path d="M55 314L107 334L153 264Z" fill="#78317f" stroke="#000000"></path><path d="M168 430L201 501L281 453Z" fill="#0a213c" stroke="#000000"></path><path d="M239 527L236 540L255 540Z" fill="#1b2952" stroke="#000000"></path><path d="M698 0L692 -11L672 0Z" fill="#9c2a83" stroke="#000000"></path><path d="M217 -5L204 8L246 0Z" fill="#000910" stroke="#000000"></path><path d="M246 0L204 8L187 49Z" fill="#ff0066" stroke="#000000"></path><path d="M81 38L117 120L144 118Z" fill="#0a213c" stroke="#000000"></path><path d="M199 -41L217 -5L246 0Z" fill="#061726" stroke="#000000"></path><path d="M764 132L770 83L723 88Z" fill="#553275" stroke="#000000"></path><path d="M698 0L814 -1L692 -11Z" fill="#ff0066" stroke="#000000"></path><path d="M809 172L772 209L842 200Z" fill="#362f66" stroke="#000000"></path><path d="M200 540L236 540L239 527Z" fill="#e20876" stroke="#000000"></path><path d="M255 540L236 540L284 547Z" fill="#0a213c" stroke="#000000"></path><path d="M284 547L160 555L471 579Z" fill="#0a213c" stroke="#000000"></path><path d="M55 314L153 264L129 228Z" fill="#1b2952" stroke="#000000"></path><path d="M144 368L114 377L151 382Z" fill="#553275" stroke="#000000"></path><path d="M164 525L200 540L201 501Z" fill="#000910" stroke="#000000"></path><path d="M842 200L777 226L796 273Z" fill="#061726" stroke="#000000"></path><path d="M842 200L772 209L777 226Z" fill="#362f66" stroke="#000000"></path><path d="M107 334L114 377L144 368Z" fill="#553275" stroke="#000000"></path><path d="M816 411L798 399L803 448Z" fill="#0a213c" stroke="#000000"></path><path d="M800 450L731 387L711 417Z" fill="#000910" stroke="#000000"></path><path d="M867 176L824 131L809 172Z" fill="#e20876" stroke="#000000"></path><path d="M143 8L144 118L187 49Z" fill="#0a213c" stroke="#000000"></path><path d="M144 118L117 120L142 167Z" fill="#362f66" stroke="#000000"></path><path d="M123 172L64 200L108 218Z" fill="#000910" stroke="#000000"></path><path d="M678 575L701 540L649 540Z" fill="#c01e80" stroke="#000000"></path><path d="M649 540L701 540L710 463Z" fill="#c01e80" stroke="#000000"></path><path d="M824 131L793 80L764 132Z" fill="#061726" stroke="#000000"></path><path d="M770 83L814 -1L697 17Z" fill="#061726" stroke="#000000"></path><path d="M164 525L201 501L168 430Z" fill="#553275" stroke="#000000"></path><path d="M201 501L200 540L239 527Z" fill="#000910" stroke="#000000"></path><path d="M236 540L160 555L284 547Z" fill="#ff0066" stroke="#000000"></path><path d="M471 579L678 575L562 540Z" fill="#0a213c" stroke="#000000"></path><path d="M800 450L711 417L710 463Z" fill="#061726" stroke="#000000"></path><path d="M842 200L796 273L858 255Z" fill="#000910" stroke="#000000"></path><path d="M809 172L824 131L764 132Z" fill="#000910" stroke="#000000"></path><path d="M858 255L796 273L797 284Z" fill="#0a213c" stroke="#000000"></path><path d="M800 450L710 463L796 500Z" fill="#0a213c" stroke="#000000"></path><path d="M798 399L837 390L797 284Z" fill="#0a213c" stroke="#000000"></path><path d="M55 314L77 347L107 334Z" fill="#78317f" stroke="#000000"></path><path d="M107 334L77 347L114 377Z" fill="#362f66" stroke="#000000"></path><path d="M110 508L164 525L168 430Z" fill="#362f66" stroke="#000000"></path><path d="M55 314L129 228L108 218Z" fill="#9c2a83" stroke="#000000"></path><path d="M796 500L710 463L764 540Z" fill="#ff0066" stroke="#000000"></path><path d="M825 468L803 448L800 450Z" fill="#000910" stroke="#000000"></path><path d="M800 450L803 448L798 399Z" fill="#9c2a83" stroke="#000000"></path><path d="M217 -5L199 -41L204 8Z" fill="#c01e80" stroke="#000000"></path><path d="M204 8L143 8L187 49Z" fill="#000910" stroke="#000000"></path><path d="M352 -31L199 -41L276 0Z" fill="#553275" stroke="#000000"></path><path d="M882 -44L352 -31L562 -26Z" fill="#c01e80" stroke="#000000"></path><path d="M110 508L168 430L48 443Z" fill="#1b2952" stroke="#000000"></path><path d="M0 205L64 200L0 144Z" fill="#ff0066" stroke="#000000"></path><path d="M117 120L64 200L123 172Z" fill="#c01e80" stroke="#000000"></path><path d="M906 313L858 255L797 284Z" fill="#362f66" stroke="#000000"></path><path d="M875 164L838 123L824 131Z" fill="#362f66" stroke="#000000"></path><path d="M860 409L837 390L816 411Z" fill="#9c2a83" stroke="#000000"></path><path d="M816 411L837 390L798 399Z" fill="#ff0066" stroke="#000000"></path><path d="M199 -41L159 -10L204 8Z" fill="#9c2a83" stroke="#000000"></path><path d="M159 -10L143 8L204 8Z" fill="#553275" stroke="#000000"></path><path d="M867 176L809 172L842 200Z" fill="#ff0066" stroke="#000000"></path><path d="M824 131L829 86L793 80Z" fill="#1b2952" stroke="#000000"></path><path d="M34 277L55 314L108 218Z" fill="#e20876" stroke="#000000"></path><path d="M160 555L163 540L110 508Z" fill="#000910" stroke="#000000"></path><path d="M159 -10L142 0L143 8Z" fill="#362f66" stroke="#000000"></path><path d="M143 8L81 38L144 118Z" fill="#0a213c" stroke="#000000"></path><path d="M128 -1L142 0L159 -10Z" fill="#000910" stroke="#000000"></path><path d="M838 123L829 86L824 131Z" fill="#000910" stroke="#000000"></path><path d="M793 80L814 -1L770 83Z" fill="#000910" stroke="#000000"></path><path d="M163 540L164 525L110 508Z" fill="#ff0066" stroke="#000000"></path><path d="M164 525L163 540L200 540Z" fill="#061726" stroke="#000000"></path><path d="M200 540L160 555L236 540Z" fill="#9c2a83" stroke="#000000"></path><path d="M764 540L710 463L701 540Z" fill="#362f66" stroke="#000000"></path><path d="M803 448L825 468L816 411Z" fill="#78317f" stroke="#000000"></path><path d="M858 255L868 187L842 200Z" fill="#ff0066" stroke="#000000"></path><path d="M838 123L939 61L829 86Z" fill="#362f66" stroke="#000000"></path><path d="M678 575L764 540L701 540Z" fill="#9c2a83" stroke="#000000"></path><path d="M868 187L867 176L842 200Z" fill="#9c2a83" stroke="#000000"></path><path d="M678 575L768 540L764 540Z" fill="#1b2952" stroke="#000000"></path><path d="M764 540L768 540L796 500Z" fill="#000910" stroke="#000000"></path><path d="M61 -37L128 -1L159 -10Z" fill="#78317f" stroke="#000000"></path><path d="M142 0L128 -1L143 8Z" fill="#e20876" stroke="#000000"></path><path d="M168 430L114 377L48 443Z" fill="#362f66" stroke="#000000"></path><path d="M163 540L160 555L200 540Z" fill="#1b2952" stroke="#000000"></path><path d="M873 476L825 468L876 540Z" fill="#000910" stroke="#000000"></path><path d="M796 500L825 468L800 450Z" fill="#9c2a83" stroke="#000000"></path><path d="M943 250L868 187L858 255Z" fill="#9c2a83" stroke="#000000"></path><path d="M120 0L123 0L128 -1Z" fill="#9c2a83" stroke="#000000"></path><path d="M128 -1L123 0L143 8Z" fill="#0a213c" stroke="#000000"></path><path d="M64 200L34 277L108 218Z" fill="#061726" stroke="#000000"></path><path d="M48 443L114 377L77 347Z" fill="#ff0066" stroke="#000000"></path><path d="M0 260L34 277L64 200Z" fill="#9c2a83" stroke="#000000"></path><path d="M61 -37L120 0L128 -1Z" fill="#78317f" stroke="#000000"></path><path d="M123 0L120 0L143 8Z" fill="#c01e80" stroke="#000000"></path><path d="M960 199L875 164L868 187Z" fill="#ff0066" stroke="#000000"></path><path d="M868 187L875 164L867 176Z" fill="#ff0066" stroke="#000000"></path><path d="M867 176L875 164L824 131Z" fill="#1b2952" stroke="#000000"></path><path d="M906 313L797 284L837 390Z" fill="#e20876" stroke="#000000"></path><path d="M48 443L0 395L19 434Z" fill="#362f66" stroke="#000000"></path><path d="M825 468L860 409L816 411Z" fill="#ff0066" stroke="#000000"></path><path d="M768 540L791 537L796 500Z" fill="#0a213c" stroke="#000000"></path><path d="M825 468L873 476L860 409Z" fill="#000910" stroke="#000000"></path><path d="M863 578L791 537L768 540Z" fill="#c01e80" stroke="#000000"></path><path d="M120 0L81 38L143 8Z" fill="#ff0066" stroke="#000000"></path><path d="M823 0L793 80L829 86Z" fill="#c01e80" stroke="#000000"></path><path d="M823 0L814 -1L793 80Z" fill="#553275" stroke="#000000"></path><path d="M692 -11L882 -44L575 -26Z" fill="#000910" stroke="#000000"></path><path d="M851 0L823 0L829 86Z" fill="#553275" stroke="#000000"></path><path d="M0 346L77 347L55 314Z" fill="#e20876" stroke="#000000"></path><path d="M860 409L906 313L837 390Z" fill="#1b2952" stroke="#000000"></path><path d="M0 205L0 260L64 200Z" fill="#000910" stroke="#000000"></path><path d="M34 277L0 285L55 314Z" fill="#362f66" stroke="#000000"></path><path d="M0 260L0 284L34 277Z" fill="#9c2a83" stroke="#000000"></path><path d="M0 284L0 285L34 277Z" fill="#e20876" stroke="#000000"></path><path d="M0 144L64 200L0 138Z" fill="#9c2a83" stroke="#000000"></path><path d="M18 487L51 483L48 443Z" fill="#061726" stroke="#000000"></path><path d="M48 443L51 483L110 508Z" fill="#78317f" stroke="#000000"></path><path d="M110 508L78 540L160 555Z" fill="#c01e80" stroke="#000000"></path><path d="M0 285L0 346L55 314Z" fill="#553275" stroke="#000000"></path><path d="M876 540L825 468L796 500Z" fill="#0a213c" stroke="#000000"></path><path d="M860 409L960 367L906 313Z" fill="#553275" stroke="#000000"></path><path d="M939 61L851 0L829 86Z" fill="#e20876" stroke="#000000"></path><path d="M823 0L882 -44L814 -1Z" fill="#000910" stroke="#000000"></path><path d="M814 -1L882 -44L692 -11Z" fill="#1b2952" stroke="#000000"></path><path d="M939 61L838 123L875 164Z" fill="#362f66" stroke="#000000"></path><path d="M0 284L-12 289L0 285Z" fill="#000910" stroke="#000000"></path><path d="M0 285L-12 289L0 346Z" fill="#0a213c" stroke="#000000"></path><path d="M0 260L-12 289L0 284Z" fill="#1b2952" stroke="#000000"></path><path d="M-45 269L-12 289L0 260Z" fill="#78317f" stroke="#000000"></path><path d="M0 138L64 200L117 120Z" fill="#e20876" stroke="#000000"></path><path d="M0 205L-45 269L0 260Z" fill="#78317f" stroke="#000000"></path><path d="M0 395L48 443L77 347Z" fill="#0a213c" stroke="#000000"></path><path d="M66 540L78 540L51 483Z" fill="#ff0066" stroke="#000000"></path><path d="M51 483L78 540L110 508Z" fill="#9c2a83" stroke="#000000"></path><path d="M0 82L0 138L117 120Z" fill="#e20876" stroke="#000000"></path><path d="M0 144L-45 269L0 205Z" fill="#1b2952" stroke="#000000"></path><path d="M-3 407L0 395L-11 405Z" fill="#e20876" stroke="#000000"></path><path d="M0 346L0 395L77 347Z" fill="#1b2952" stroke="#000000"></path><path d="M120 0L52 0L81 38Z" fill="#9c2a83" stroke="#000000"></path><path d="M81 38L0 82L117 120Z" fill="#e20876" stroke="#000000"></path><path d="M61 -37L52 0L120 0Z" fill="#e20876" stroke="#000000"></path><path d="M18 487L48 443L19 434Z" fill="#ff0066" stroke="#000000"></path><path d="M18 487L66 540L51 483Z" fill="#ff0066" stroke="#000000"></path><path d="M78 540L74 564L160 555Z" fill="#e20876" stroke="#000000"></path><path d="M956 244L943 250L960 268Z" fill="#78317f" stroke="#000000"></path><path d="M906 313L943 250L858 255Z" fill="#000910" stroke="#000000"></path><path d="M0 395L-3 407L19 434Z" fill="#000910" stroke="#000000"></path><path d="M-11 405L0 395L0 346Z" fill="#000910" stroke="#000000"></path><path d="M873 476L913 431L860 409Z" fill="#e20876" stroke="#000000"></path><path d="M52 0L0 82L81 38Z" fill="#0a213c" stroke="#000000"></path><path d="M0 138L-45 269L0 144Z" fill="#0a213c" stroke="#000000"></path><path d="M0 546L74 564L66 540Z" fill="#362f66" stroke="#000000"></path><path d="M66 540L74 564L78 540Z" fill="#c01e80" stroke="#000000"></path><path d="M160 555L74 564L471 579Z" fill="#000910" stroke="#000000"></path><path d="M-45 269L-11 405L0 346Z" fill="#362f66" stroke="#000000"></path><path d="M-3 407L-11 405L19 434Z" fill="#362f66" stroke="#000000"></path><path d="M199 -41L61 -37L159 -10Z" fill="#061726" stroke="#000000"></path><path d="M52 0L0 0L0 82Z" fill="#1b2952" stroke="#000000"></path><path d="M0 480L18 487L19 434Z" fill="#c01e80" stroke="#000000"></path><path d="M960 268L943 250L906 313Z" fill="#061726" stroke="#000000"></path><path d="M943 250L960 199L868 187Z" fill="#1b2952" stroke="#000000"></path><path d="M960 309L960 268L906 313Z" fill="#ff0066" stroke="#000000"></path><path d="M0 82L-45 269L0 138Z" fill="#362f66" stroke="#000000"></path><path d="M-12 289L-45 269L0 346Z" fill="#e20876" stroke="#000000"></path><path d="M863 578L876 540L791 537Z" fill="#061726" stroke="#000000"></path><path d="M791 537L876 540L796 500Z" fill="#c01e80" stroke="#000000"></path><path d="M873 476L923 459L913 431Z" fill="#9c2a83" stroke="#000000"></path><path d="M960 313L960 309L906 313Z" fill="#553275" stroke="#000000"></path><path d="M960 313L906 313L960 367Z" fill="#e20876" stroke="#000000"></path><path d="M960 367L860 409L960 384Z" fill="#0a213c" stroke="#000000"></path><path d="M969 274L960 199L956 244Z" fill="#78317f" stroke="#000000"></path><path d="M956 244L960 199L943 250Z" fill="#061726" stroke="#000000"></path><path d="M876 540L923 459L873 476Z" fill="#c01e80" stroke="#000000"></path><path d="M960 199L960 178L875 164Z" fill="#e20876" stroke="#000000"></path><path d="M0 540L0 480L-11 405Z" fill="#ff0066" stroke="#000000"></path><path d="M-11 405L0 480L19 434Z" fill="#0a213c" stroke="#000000"></path><path d="M18 487L0 540L66 540Z" fill="#9c2a83" stroke="#000000"></path><path d="M960 268L969 274L956 244Z" fill="#9c2a83" stroke="#000000"></path><path d="M960 199L1005 118L960 178Z" fill="#78317f" stroke="#000000"></path><path d="M960 309L969 274L960 268Z" fill="#000910" stroke="#000000"></path><path d="M960 313L969 274L960 309Z" fill="#78317f" stroke="#000000"></path><path d="M1005 118L960 153L960 178Z" fill="#1b2952" stroke="#000000"></path><path d="M960 178L960 153L875 164Z" fill="#ff0066" stroke="#000000"></path><path d="M960 384L860 409L913 431Z" fill="#553275" stroke="#000000"></path><path d="M960 313L970 372L969 274Z" fill="#78317f" stroke="#000000"></path><path d="M678 575L863 578L768 540Z" fill="#061726" stroke="#000000"></path><path d="M969 540L960 425L923 459Z" fill="#ff0066" stroke="#000000"></path><path d="M913 586L863 578L678 575Z" fill="#9c2a83" stroke="#000000"></path><path d="M960 425L960 384L913 431Z" fill="#0a213c" stroke="#000000"></path><path d="M960 367L970 372L960 313Z" fill="#c01e80" stroke="#000000"></path><path d="M960 153L939 61L875 164Z" fill="#553275" stroke="#000000"></path><path d="M960 1L882 -44L851 0Z" fill="#061726" stroke="#000000"></path><path d="M851 0L882 -44L823 0Z" fill="#78317f" stroke="#000000"></path><path d="M575 -26L882 -44L562 -26Z" fill="#78317f" stroke="#000000"></path><path d="M960 425L913 431L923 459Z" fill="#78317f" stroke="#000000"></path><path d="M960 425L970 372L960 384Z" fill="#000910" stroke="#000000"></path><path d="M960 384L970 372L960 367Z" fill="#c01e80" stroke="#000000"></path><path d="M61 -37L0 0L52 0Z" fill="#1b2952" stroke="#000000"></path><path d="M0 82L0 0L-45 269Z" fill="#9c2a83" stroke="#000000"></path><path d="M960 540L923 459L876 540Z" fill="#061726" stroke="#000000"></path><path d="M960 153L960 69L939 61Z" fill="#061726" stroke="#000000"></path><path d="M939 61L960 1L851 0Z" fill="#061726" stroke="#000000"></path><path d="M1005 118L960 69L960 153Z" fill="#9c2a83" stroke="#000000"></path><path d="M-45 269L0 540L-11 405Z" fill="#c01e80" stroke="#000000"></path><path d="M0 480L0 540L18 487Z" fill="#362f66" stroke="#000000"></path><path d="M-45 269L0 546L0 540Z" fill="#e20876" stroke="#000000"></path><path d="M0 540L0 546L66 540Z" fill="#0a213c" stroke="#000000"></path><path d="M471 579L913 586L678 575Z" fill="#061726" stroke="#000000"></path><path d="M863 578L913 586L876 540Z" fill="#362f66" stroke="#000000"></path><path d="M989 0L960 1L1011 47Z" fill="#ff0066" stroke="#000000"></path><path d="M960 69L960 1L939 61Z" fill="#c01e80" stroke="#000000"></path><path d="M989 0L960 0L960 1Z" fill="#362f66" stroke="#000000"></path><path d="M960 1L960 0L882 -44Z" fill="#e20876" stroke="#000000"></path><path d="M969 274L1005 118L960 199Z" fill="#061726" stroke="#000000"></path><path d="M970 372L1005 118L969 274Z" fill="#9c2a83" stroke="#000000"></path><path d="M913 586L960 540L876 540Z" fill="#061726" stroke="#000000"></path><path d="M960 425L989 547L970 372Z" fill="#ff0066" stroke="#000000"></path><path d="M970 372L989 547L1005 118Z" fill="#061726" stroke="#000000"></path><path d="M989 547L969 540L960 540Z" fill="#0a213c" stroke="#000000"></path><path d="M960 540L969 540L923 459Z" fill="#9c2a83" stroke="#000000"></path><path d="M1011 47L960 1L960 69Z" fill="#9c2a83" stroke="#000000"></path><path d="M960 0L989 0L882 -44Z" fill="#e20876" stroke="#000000"></path><path d="M1005 118L1011 47L960 69Z" fill="#e20876" stroke="#000000"></path><path d="M913 586L989 547L960 540Z" fill="#362f66" stroke="#000000"></path><path d="M969 540L989 547L960 425Z" fill="#78317f" stroke="#000000"></path><path d="M1005 118L989 547L1011 47Z" fill="#e20876" stroke="#000000"></path></g></svg>